<?xml version="1.0" encoding="UTF-8"?>
<svg version="1.1" xmlns="http://www.w3.org/2000/svg" width="1080" height="414">
<path d="M0 0 C356.4 0 712.8 0 1080 0 C1080 136.62 1080 273.24 1080 414 C723.6 414 367.2 414 0 414 C0 277.38 0 140.76 0 0 Z " fill="#000000" transform="translate(0,0)"/>
<path d="M0 0 C0.65956192 -0.00511093 1.31912384 -0.01022186 1.99867249 -0.01548767 C4.15757577 -0.02927475 6.31615585 -0.0284351 8.47509766 -0.02612305 C9.99053056 -0.03001622 11.50596238 -0.03435216 13.02139282 -0.03910828 C16.19024195 -0.04654729 19.35897961 -0.04629631 22.52783203 -0.04101562 C26.56813785 -0.03522678 30.60798437 -0.05214882 34.64821434 -0.0753603 C37.77626161 -0.09016623 40.90420004 -0.09096002 44.03227615 -0.08785057 C45.52086928 -0.08836043 47.00946904 -0.09353455 48.4980278 -0.10366249 C62.51016817 -0.18730407 74.1338908 2.37137877 84.51416016 12.3371582 C87.87622623 15.83979847 90.77282673 19.54645525 93.63916016 23.4621582 C98.78572224 30.48507104 103.56845722 35.52632716 112.01416016 38.2746582 C114.84439593 38.54272975 117.44709298 38.67318509 120.26928711 38.64355469 C121.06379272 38.64732117 121.85829834 38.65108765 122.67687988 38.65496826 C124.39120114 38.66137205 126.10555794 38.6610978 127.81987953 38.65478325 C130.54122521 38.64562138 133.26188936 38.65595549 135.98320007 38.67140198 C143.71641048 38.71135531 151.44956481 38.71270994 159.18286133 38.71044922 C163.92434745 38.71039789 168.66546571 38.72967887 173.40685081 38.75978279 C176.07351076 38.77053451 178.73944625 38.75852106 181.40608215 38.74595642 C193.26727341 38.77220126 202.28714973 40.01318655 211.27587891 48.4074707 C213.40092301 50.69010235 215.08768266 53.1331037 216.81103516 55.72387695 C218.74058639 58.21099332 221.3822297 59.59022271 224.01416016 61.2746582 C231.15875546 66.85092771 235.16051113 74.43818275 236.47336006 83.41424942 C236.65145405 86.75659681 236.67909359 90.06497577 236.64526367 93.41186523 C236.65599663 95.29234558 236.65599663 95.29234558 236.66694641 97.21081543 C236.68084697 100.61205321 236.67264346 104.01174322 236.65285611 107.41285181 C236.63632113 110.99292385 236.6453026 114.57295132 236.65037537 118.15304565 C236.65487876 124.15969375 236.63913339 130.16602864 236.61108398 136.17260742 C236.57901054 143.09379894 236.57906475 150.01442691 236.59629875 156.93565857 C236.61221893 163.62700586 236.60539707 170.31814869 236.58836174 177.00948715 C236.58153149 179.84260452 236.58248173 182.675556 236.58990669 185.50867081 C236.59906357 189.47140876 236.57491664 193.4335784 236.54760742 197.39624023 C236.55739624 199.1374263 236.55739624 199.1374263 236.56738281 200.91378784 C236.43515264 212.24340695 233.19366912 219.94240208 225.39697266 228.13793945 C218.82636896 234.02993982 211.92836826 235.42348982 203.33067322 235.42855835 C202.43270053 235.4329406 201.53472784 235.43732286 200.60954386 235.44183791 C197.58808248 235.45523655 194.56665028 235.46140722 191.54516602 235.4675293 C189.38363513 235.47542953 187.22210556 235.48369843 185.06057739 235.49230957 C177.95006573 235.51854258 170.83954815 235.53384024 163.72900391 235.5480957 C161.28156594 235.55345519 158.83412802 235.5588327 156.38669014 235.56422806 C146.20493931 235.58586021 136.02319008 235.60459631 125.84142208 235.61585045 C111.24975336 235.63208469 96.65835114 235.66524624 82.06678289 235.7222513 C71.80762762 235.76096374 61.54854358 235.78048481 51.28931719 235.78577101 C45.16211167 235.78942313 39.03519032 235.80142994 32.90806389 235.83387375 C27.14026989 235.86397625 21.37293166 235.8702581 15.60507584 235.85848999 C13.49196867 235.85826943 11.37884022 235.86655983 9.2658062 235.88414383 C-11.17029147 236.04490197 -11.17029147 236.04490197 -18.98583984 230.2746582 C-19.55681428 229.8947341 -20.12778872 229.51480999 -20.71606541 229.12337303 C-26.69516098 224.73537669 -30.00683598 218.2581733 -31.98583984 211.2746582 C-32.1716026 208.65099602 -32.26479662 206.1354878 -32.25326538 203.51445007 C-32.25779649 202.75204933 -32.26232761 201.98964858 -32.26699603 201.20414478 C-32.27961656 198.65947171 -32.27802119 196.11501332 -32.27636719 193.5703125 C-32.28235391 191.74168626 -32.28915979 189.91306254 -32.29672241 188.08444214 C-32.31437513 183.12359401 -32.31907749 178.16281489 -32.32035398 173.20193839 C-32.32177657 170.1005537 -32.32604823 166.99918651 -32.33134842 163.89780617 C-32.34984642 153.0723217 -32.35801933 142.24688646 -32.35644531 131.42138672 C-32.35524404 121.33982637 -32.37634427 111.25848016 -32.40793264 101.176974 C-32.4341079 92.5135042 -32.44481208 83.85010429 -32.44353449 75.18659526 C-32.44302522 70.01581181 -32.44868927 64.84521869 -32.46989059 59.67447472 C-32.48929392 54.80950941 -32.48938307 49.9449156 -32.47485733 45.07993698 C-32.47277073 43.29860579 -32.47746126 41.51725121 -32.48957825 39.73596001 C-32.59879667 22.56207272 -32.59879667 22.56207272 -27.98583984 15.2746582 C-27.4185444 14.30260201 -27.4185444 14.30260201 -26.83978844 13.31090832 C-21.06998996 3.76104589 -10.72574007 0.0417701 0 0 Z " fill="#54ABED" transform="translate(81.98583984375,77.725341796875)"/>
<path d="M0 0 C0.67160156 0.49757813 1.34320312 0.99515625 2.03515625 1.5078125 C12.4399825 9.80761609 18.76212206 22.00125285 21 35 C21.09656459 36.94525444 21.14518759 38.89321085 21.15771484 40.84082031 C21.16797699 41.9926178 21.17823914 43.14441528 21.18881226 44.33111572 C21.19611359 45.56762878 21.20341492 46.80414185 21.2109375 48.078125 C21.23182253 50.03602339 21.25272515 51.99392177 21.27463722 53.95180893 C21.32758998 58.76386506 21.37192267 63.57592505 21.40136719 68.38818359 C21.4183444 71.09118726 21.44311359 73.79391103 21.47622681 76.49676514 C21.50700655 79.03542749 21.52657178 81.57425811 21.53329468 84.11309814 C21.64046284 95.01793943 21.64046284 95.01793943 26.30990601 104.61480713 C29.67503783 107.71701346 32.59035993 108.40958794 37 109 C37.25394531 107.83984375 37.50789062 106.6796875 37.76953125 105.484375 C39.71872618 96.62180741 41.72591198 87.78624918 44 79 C48.75049873 79 51.75109556 80.66738693 55.875 82.75 C67.80422382 88.47845218 77.87317796 91.32235616 91.125 91.4375 C92.13385254 91.4478125 93.14270508 91.458125 94.18212891 91.46875 C95.61177979 91.45134766 95.61177979 91.45134766 97.0703125 91.43359375 C97.92383301 91.42384521 98.77735352 91.41409668 99.65673828 91.40405273 C102.45932777 90.92079731 103.87777076 89.84753377 106 88 C105.91581854 85.07267126 105.91581854 85.07267126 105 82 C102.76881466 80.37534988 102.76881466 80.37534988 99.75 79.5 C97.99236328 78.89478516 97.99236328 78.89478516 96.19921875 78.27734375 C91.35107368 76.76591181 86.45416417 75.42465787 81.5625 74.0625 C63.52362348 69.03085604 47.78200211 62.4537118 37.6875 45.83984375 C34.95275198 40.30387814 34.62623852 34.94377351 34.5625 28.875 C34.55226807 28.1229126 34.54203613 27.3708252 34.53149414 26.59594727 C34.68480764 16.80854216 38.92563531 8.49224825 45.4375 1.3125 C46.283125 0.549375 47.12875 -0.21375 48 -1 C48.845625 -1.804375 49.69125 -2.60875 50.5625 -3.4375 C66.60092365 -16.50737223 88.3039465 -17.42108052 108 -16 C121.7976478 -14.21599103 136.28687774 -10.80874817 148 -3 C146.61544878 2.11045733 145.22132799 7.21800397 143.79296875 12.31640625 C141.40413883 20.84924124 139.0778274 29.38461808 137 38 C133.59056181 36.73414905 130.71602171 35.25108362 127.6875 33.25 C115.0509003 25.5548766 101.14431842 21.91652925 86.4375 21.75 C85.38175781 21.73573975 85.38175781 21.73573975 84.3046875 21.72119141 C80.19894695 21.63450152 80.19894695 21.63450152 77 24 C76.33256123 26.41344667 76.33256123 26.41344667 77 29 C81.11505262 32.19025196 85.12349972 33.93642344 90.0625 35.5 C91.04585327 35.81735107 91.04585327 35.81735107 92.04907227 36.14111328 C95.12242898 37.1263396 98.2054834 38.05975049 101.3046875 38.9609375 C118.72467367 44.04357686 135.80320821 50.76481927 145.24609375 67.1640625 C149.3734262 75.70435595 149.34187498 85.52562506 147.1171875 94.6015625 C141.84739918 109.5035467 131.85102038 118.20877948 118 125 C100.07964535 133.54147745 76.7624629 133.60431741 58.0546875 127.34960938 C41.30346231 121.38814394 41.30346231 121.38814394 36 117 C35.2109375 114.9765625 35.2109375 114.9765625 35 113 C35.33 112.34 35.66 111.68 36 111 C35.26475098 111.39791748 34.52950195 111.79583496 33.77197266 112.20581055 C30.99563039 113.70739079 28.2185219 115.20754214 25.44091797 116.70678711 C23.66706467 117.66478236 21.89406854 118.62436424 20.12109375 119.58398438 C-1.78101665 131.40122473 -1.78101665 131.40122473 -8 131 C-14.11365094 127.67444262 -17.02858221 122.83007864 -19.30859375 116.4296875 C-20.54050877 112.10058501 -21.1405679 107.9769065 -21.31640625 103.48046875 C-21.35830078 102.45888672 -21.40019531 101.43730469 -21.44335938 100.38476562 C-21.48267578 99.32966797 -21.52199219 98.27457031 -21.5625 97.1875 C-21.60568359 96.11306641 -21.64886719 95.03863281 -21.69335938 93.93164062 C-21.79910983 91.28787918 -21.90120233 88.6440289 -22 86 C-23.37859628 88.03930602 -24.75288233 90.08133703 -26.125 92.125 C-26.56513428 92.77718506 -27.00526855 93.42937012 -27.45874023 94.10131836 C-30.22843526 98.23848186 -32.88620042 102.42443805 -35.46484375 106.68359375 C-36.06087402 107.65603027 -36.6569043 108.6284668 -37.27099609 109.63037109 C-38.44200823 111.54694997 -39.5980025 113.4728074 -40.73681641 115.40869141 C-45.27758654 122.79025849 -50.18254382 126.90860748 -58.11328125 130.3515625 C-67.82062483 132.53210247 -78.2420067 131.86403372 -87 127 C-93.15178029 122.71555517 -97.41020835 118.05818864 -100 111 C-100.35449219 110.12988281 -100.70898438 109.25976562 -101.07421875 108.36328125 C-104.02115922 97.65730763 -103.42858966 83.7395285 -98 74 C-88.57685848 58.27921439 -74.49006084 48.64173586 -56.875 43.6875 C-45.05869821 41.47059821 -33.02971908 42.15557437 -22 47 C-25.57591008 37.0713558 -29.00722458 29.83124772 -38.890625 25.09375 C-48.95986002 21.06605599 -59.95229557 22.20875465 -70.01171875 25.66015625 C-75.41710173 28.08374627 -80.11021965 31.40725788 -83.6171875 36.21875 C-84.30167969 37.10046875 -84.30167969 37.10046875 -85 38 C-85.66 38 -86.32 38 -87 38 C-87.80050781 36.51113281 -87.80050781 36.51113281 -88.6171875 34.9921875 C-93.80268289 25.48917031 -99.51499632 16.66472309 -106 8 C-101.70456411 -1.98578138 -89.4078327 -8.40859707 -79.8125 -12.2890625 C-53.93380072 -21.2819105 -21.77047378 -16.90825529 0 0 Z " fill="#54AAEB" transform="translate(713,118)"/>
<path d="M0 0 C0.00238835 0.7956861 0.00477671 1.5913722 0.00723743 2.41117001 C0.06643105 21.79197181 0.14200907 41.17264674 0.23571491 60.55331326 C0.28063768 69.92574881 0.32006046 79.29814667 0.34643555 88.6706543 C0.36944413 96.84186191 0.4028741 105.01294988 0.44870156 113.18406254 C0.47259523 117.50868146 0.49134924 121.83318215 0.49761391 126.15786552 C0.50368225 130.23318374 0.52374492 134.30819961 0.55427551 138.38340569 C0.56302779 139.87444455 0.56678417 141.36552297 0.56500816 142.85658646 C0.20581856 155.57572739 0.20581856 155.57572739 5.48366261 166.69129086 C8.82585083 169.57584169 13.39327639 169.32477586 17.61328125 169.296875 C21.55122598 168.80704881 24.63600895 167.00871408 28 165 C28.66 164.67 29.32 164.34 30 164 C30.21148682 164.99797607 30.21148682 164.99797607 30.42724609 166.01611328 C31.07294592 169.05317641 31.72392425 172.08908501 32.375 175.125 C32.59671875 176.17171875 32.8184375 177.2184375 33.046875 178.296875 C33.93810059 182.43845275 34.82334306 186.47002919 36.1640625 190.4921875 C37 193 37 193 37 197 C25.33624495 206.9592397 9.57752245 207.81998564 -5 207 C-15.89445661 205.36027311 -25.14017321 200.15454846 -32.1796875 191.67578125 C-40.67301577 179.19095321 -42.30629441 165.42219099 -42.27124023 150.6730957 C-42.27646698 149.50561798 -42.28169373 148.33814026 -42.28707886 147.13528442 C-42.29725117 144.62274314 -42.30308732 142.11018119 -42.30496025 139.59762001 C-42.30864902 135.61612639 -42.32509291 131.63479745 -42.34571838 127.65336609 C-42.39459341 117.77213192 -42.42578457 107.89085282 -42.44702148 98.00952148 C-42.46358625 90.31017866 -42.48648285 82.61098385 -42.53004223 74.91174001 C-42.54816046 71.60559469 -42.55861774 68.29969538 -42.55874443 64.99349403 C-42.55893696 61.30838249 -42.57723682 57.62375661 -42.59936523 53.9387207 C-42.59478806 52.85849136 -42.59021088 51.77826202 -42.585495 50.66529846 C-42.66291463 42.53526653 -43.9316271 34.62787226 -49 28 C-50.65 27.01 -52.3 26.02 -54 25 C-54.33 36.22 -54.66 47.44 -55 59 C-58.63 57.02 -62.26 55.04 -66 53 C-75.90004624 48.04997688 -87.42063398 48.67103377 -98.265625 48.5859375 C-99.79548127 48.56718054 -101.32532769 48.54760395 -102.85516357 48.5272522 C-106.83996716 48.47640231 -110.82480411 48.43652766 -114.80975342 48.39910889 C-119.61336263 48.3516507 -124.41681245 48.29025926 -129.22029114 48.23126221 C-136.48012805 48.14362632 -143.73994342 48.07345105 -151 48 C-150.67 67.14 -150.34 86.28 -150 106 C-148.02 102.7 -146.04 99.4 -144 96 C-135.61793769 86.50032938 -123.04589658 77.78065191 -109.94458008 76.85473633 C-107.56707814 76.82991787 -105.19014102 76.8143417 -102.8125 76.8125 C-101.99974609 76.80025391 -101.18699219 76.78800781 -100.34960938 76.77539062 C-92.58065739 76.75684897 -85.50519023 77.85647617 -78.5625 81.5 C-77.73878906 81.9228125 -76.91507812 82.345625 -76.06640625 82.78125 C-74 84 -74 84 -72 86 C-71.75949097 87.98684692 -71.75949097 87.98684692 -71.77294922 90.44970703 C-71.77317581 91.83091232 -71.77317581 91.83091232 -71.77340698 93.24002075 C-71.78372955 94.23589203 -71.79405212 95.23176331 -71.8046875 96.2578125 C-71.8075174 97.27600067 -71.81034729 98.29418884 -71.81326294 99.3432312 C-71.8244823 102.603939 -71.84959004 105.86437484 -71.875 109.125 C-71.88502753 111.33202729 -71.89415377 113.53905888 -71.90234375 115.74609375 C-71.92442732 121.16415572 -71.95792205 126.58205843 -72 132 C-72.93448975 131.44497803 -73.86897949 130.88995605 -74.83178711 130.31811523 C-76.08425687 129.58540576 -77.33695465 128.85308596 -78.58984375 128.12109375 C-79.50896545 127.5731012 -79.50896545 127.5731012 -80.44665527 127.01403809 C-86.04658028 123.76050198 -91.63300767 122.14814616 -98 121 C-98.80953125 120.81824219 -99.6190625 120.63648438 -100.453125 120.44921875 C-115.22850001 117.84313267 -134.58060411 120.31703775 -147 129 C-149.80110381 132.07294635 -150.37958855 134.07895881 -150.40405273 138.20483398 C-150.41673691 139.24369247 -150.42942108 140.28255096 -150.44248962 141.35289001 C-150.43955399 142.47264725 -150.43661835 143.59240448 -150.43359375 144.74609375 C-150.4388356 145.90818863 -150.44407745 147.07028351 -150.44947815 148.26759338 C-150.45590457 150.73136599 -150.4545534 153.19516925 -150.44604492 155.65893555 C-150.43760213 159.39233725 -150.466181 163.12417398 -150.49804688 166.85742188 C-150.4996609 169.25781205 -150.49907752 171.65820489 -150.49609375 174.05859375 C-150.50732773 175.1601329 -150.51856171 176.26167206 -150.53013611 177.39659119 C-150.44609627 186.95741983 -148.27860678 195.44278644 -144 204 C-163.47 204 -182.94 204 -203 204 C-201.68 201.03 -200.36 198.06 -199 195 C-196.37219006 187.3311763 -196.7033438 179.53442519 -196.70947266 171.51879883 C-196.70348096 169.95252158 -196.69667395 168.38624728 -196.68911743 166.81997681 C-196.67151296 162.58209359 -196.66676433 158.34429124 -196.66548586 154.10637498 C-196.66406026 151.45286812 -196.65978289 148.79938155 -196.65449142 146.14587975 C-196.63600774 136.87189819 -196.62781851 127.59797397 -196.62939453 118.32397461 C-196.63059466 109.70683673 -196.60951325 101.08994983 -196.5779072 92.47287542 C-196.5516699 85.05260292 -196.54103039 77.632412 -196.54230535 70.21209353 C-196.5428129 65.7901432 -196.53724516 61.36841596 -196.51594925 56.94651222 C-196.49644132 52.78243094 -196.49652713 48.61878267 -196.51098251 44.45468521 C-196.51305643 42.93626579 -196.5084554 41.41781836 -196.4962616 39.89944649 C-196.43139218 31.25404232 -197.23690764 23.69050271 -200.14208031 15.47205639 C-201 13 -201 13 -201 11 C-201.66 11 -202.32 11 -203 11 C-203 10.34 -203 9.68 -203 9 C-154.16 9 -105.32 9 -55 9 C-55 12.96 -55 16.92 -55 21 C-37.10467182 16.37658694 -19.85697975 10.40865315 -3.86328125 0.99609375 C-2 0 -2 0 0 0 Z " fill="#54AAEB" transform="translate(568,42)"/>
<path d="M0 0 C19.47 0 38.94 0 59 0 C57.35 3.3 55.7 6.6 54 10 C53.19440219 14.02798904 52.85156547 17.29554743 52.79467773 21.35083008 C52.77473251 22.6117598 52.75478729 23.87268951 52.73423767 25.17182922 C52.71725732 26.53772867 52.70037837 27.90362938 52.68359375 29.26953125 C52.66300526 30.67486659 52.6420083 32.080196 52.62062073 33.48551941 C52.56559565 37.17287373 52.51610067 40.86028212 52.46777344 44.54772949 C52.41741496 48.31507128 52.36185453 52.08233614 52.30664062 55.84960938 C52.19880915 63.23301346 52.0996343 70.61646253 52 78 C69.16 78 86.32 78 104 78 C103.9322272 69.96541818 103.86161208 61.9316973 103.7644577 53.89755249 C103.71999419 50.1553557 103.68051979 46.41326577 103.65356445 42.67089844 C103.62734998 39.05912515 103.58682354 35.44775823 103.53681374 31.83623886 C103.52026652 30.46575899 103.50867727 29.09520903 103.50238609 27.72464371 C103.45031048 17.4124046 101.80487682 9.51219204 98 0 C117.47 0 136.94 0 157 0 C155.68 2.64 154.36 5.28 153 8 C150.31614806 15.67536145 150.71067985 23.55399725 150.7253418 31.58886719 C150.72098935 33.16661825 150.71580443 34.74436719 150.70985413 36.32211304 C150.69650765 40.59092792 150.69588078 44.85965401 150.69841743 49.12848568 C150.69949046 52.70166519 150.69459509 56.27482698 150.689812 59.84800267 C150.67873107 68.28474975 150.67827093 76.7214523 150.68432617 85.15820312 C150.69036037 93.83780352 150.6780658 102.51724159 150.6567561 111.1968143 C150.63909115 118.66887398 150.63314658 126.14088223 150.63639385 133.61296201 C150.63819964 138.06669357 150.6356416 142.52030941 150.62167931 146.97402191 C150.60902628 151.16677319 150.61111506 155.35927323 150.62409019 159.55202103 C150.62643965 161.08214277 150.62378051 162.61228261 150.61546707 164.14238358 C150.55920821 175.31107204 151.1459026 185.24317099 157 195 C137.53 195 118.06 195 98 195 C99.32 191.7 100.64 188.4 102 185 C102.97349885 180.76154909 103.14618398 176.69449048 103.20532227 172.35205078 C103.22526749 171.05115509 103.24521271 169.7502594 103.26576233 168.40994263 C103.28274159 167.0050671 103.29962057 165.60019035 103.31640625 164.1953125 C103.33699997 162.74656616 103.35799704 161.2978255 103.37937927 159.84909058 C103.43435047 156.05160142 103.48386886 152.2540603 103.53222656 148.45648193 C103.59149889 143.8916765 103.65758842 139.32696522 103.72252655 134.76223755 C103.82022175 127.84154962 103.90929237 120.92079893 104 114 C86.84 114 69.68 114 52 114 C52.12014294 125.15540172 52.12014294 125.15540172 52.2578125 136.31054688 C52.3179157 140.86608635 52.37604886 145.42158654 52.421875 149.97729492 C52.45898748 153.65381927 52.50541432 157.33012286 52.55806351 161.00645638 C52.57647059 162.40289465 52.59162797 163.79937999 52.60334396 165.19589043 C52.70000077 176.32763084 54.05048793 184.46796782 58 195 C38.86 195 19.72 195 0 195 C1.32 191.7 2.64 188.4 4 185 C4.93913976 180.32510029 5.12693106 175.82963234 5.13371277 171.06863403 C5.13597833 170.40746767 5.13824388 169.74630131 5.14057809 169.0650996 C5.14686376 166.86906512 5.14609226 164.67309321 5.14526367 162.47705078 C5.14825853 160.89458131 5.15166181 159.31211257 5.15544128 157.72964478 C5.16425154 153.44446377 5.16661813 149.15930275 5.16725707 144.87411356 C5.16796918 142.19368057 5.17010654 139.51325262 5.17275429 136.83282089 C5.18199738 127.47269113 5.18609041 118.11257558 5.18530273 108.75244141 C5.184702 100.0415976 5.19525566 91.33081574 5.2110464 82.61998761 C5.22414059 75.12846974 5.22948585 67.63697207 5.22884732 60.14544284 C5.22859292 55.67672411 5.23141241 51.20806047 5.24202538 46.73935318 C5.25173819 42.53518404 5.25176379 38.33112233 5.24450874 34.12694931 C5.2434669 32.58911735 5.24580188 31.05127859 5.2518692 29.51345825 C5.45485927 15.08747681 5.45485927 15.08747681 0 2 C0 1.34 0 0.68 0 0 Z " fill="#54AAEB" transform="translate(870,51)"/>
<path d="M0 0 C0.65956192 -0.00511093 1.31912384 -0.01022186 1.99867249 -0.01548767 C4.15757577 -0.02927475 6.31615585 -0.0284351 8.47509766 -0.02612305 C9.99053056 -0.03001622 11.50596238 -0.03435216 13.02139282 -0.03910828 C16.19024195 -0.04654729 19.35897961 -0.04629631 22.52783203 -0.04101562 C26.56813785 -0.03522678 30.60798437 -0.05214882 34.64821434 -0.0753603 C37.77626161 -0.09016623 40.90420004 -0.09096002 44.03227615 -0.08785057 C45.52086928 -0.08836043 47.00946904 -0.09353455 48.4980278 -0.10366249 C62.51016817 -0.18730407 74.1338908 2.37137877 84.51416016 12.3371582 C87.87622623 15.83979847 90.77282673 19.54645525 93.63916016 23.4621582 C98.78572224 30.48507104 103.56845722 35.52632716 112.01416016 38.2746582 C114.84439593 38.54272975 117.44709298 38.67318509 120.26928711 38.64355469 C121.06379272 38.64732117 121.85829834 38.65108765 122.67687988 38.65496826 C124.39120114 38.66137205 126.10555794 38.6610978 127.81987953 38.65478325 C130.54122521 38.64562138 133.26188936 38.65595549 135.98320007 38.67140198 C143.71641048 38.71135531 151.44956481 38.71270994 159.18286133 38.71044922 C163.92434745 38.71039789 168.66546571 38.72967887 173.40685081 38.75978279 C176.07351076 38.77053451 178.73944625 38.75852106 181.40608215 38.74595642 C193.30009152 38.77223355 202.31798084 40.02221686 211.31884766 48.45825195 C213.60198542 50.90447098 215.32519993 53.38935115 217.01416016 56.2746582 C214.43961962 57.56192847 213.76922911 56.96347584 211.01416016 56.2746582 C208.78084811 56.16740345 206.54464886 56.11597512 204.30883789 56.09765625 C203.31034065 56.08779945 203.31034065 56.08779945 202.29167175 56.07774353 C200.0936978 56.05807415 197.89579219 56.04635852 195.69775391 56.03637695 C194.94287249 56.03230143 194.18799107 56.0282259 193.41023445 56.02402687 C189.40996706 56.00318724 185.4097337 55.98887979 181.40942383 55.97949219 C177.30302128 55.96846788 173.19716659 55.93410874 169.09095669 55.89432049 C165.91222721 55.86800768 162.73362499 55.85978718 159.55479622 55.85621071 C158.04270821 55.85137781 156.5306246 55.8398594 155.01864433 55.82117271 C139.79980699 55.64486181 129.51410202 58.99543457 118.51416016 69.5246582 C115.05755122 73.0755383 112.05612094 76.95054169 108.99462891 80.84106445 C104.11918029 86.83200033 98.92165361 92.7990562 91.01416016 94.2746582 C88.36739455 94.3721482 85.74631479 94.41837967 83.09960938 94.41650391 C82.30554184 94.41997833 81.5114743 94.42345276 80.69334412 94.42703247 C78.97078016 94.43437597 77.24820682 94.43972883 75.52563095 94.44332314 C72.79208541 94.45050981 70.05871718 94.46619454 67.32522583 94.48466492 C59.55359382 94.53701862 51.78205833 94.58506012 44.01025391 94.60058594 C39.25272331 94.61071198 34.4956388 94.6401551 29.73828506 94.68190575 C27.93237825 94.69415718 26.12640826 94.69934779 24.32046127 94.69710732 C13.13228097 94.68664614 4.39208979 95.10447344 -5.23583984 101.3996582 C-12.93748326 109.45137632 -15.13501264 116.83336321 -15.12768555 127.74926758 C-15.13115997 128.59052689 -15.1346344 129.43178619 -15.13821411 130.29853821 C-15.14554866 132.11986129 -15.15090626 133.94119317 -15.15450478 135.76252747 C-15.16168984 138.6459981 -15.17737001 141.52930051 -15.19584656 144.41271973 C-15.24823247 152.60902663 -15.29631924 160.80523808 -15.31176758 169.00170898 C-15.32184435 174.01971529 -15.3511549 179.03729299 -15.39308739 184.05513 C-15.40540023 185.96565003 -15.41051813 187.87623054 -15.40828896 189.78678894 C-15.40593794 192.45834215 -15.42808437 195.12866223 -15.45581055 197.80004883 C-15.44920914 198.58773148 -15.44260773 199.37541412 -15.43580627 200.18696594 C-15.49839145 203.85985145 -15.86911797 206.08311199 -17.79631042 209.24572754 C-20.77765071 212.00839091 -22.9792471 212.20181106 -26.98583984 212.2746582 C-27.97583984 211.6146582 -28.96583984 210.9546582 -29.98583984 210.2746582 C-30.64583984 210.6046582 -31.30583984 210.9346582 -31.98583984 211.2746582 C-32.07933124 187.04836138 -32.14984268 162.82209164 -32.19308853 138.59565067 C-32.21370313 127.34658333 -32.24180276 116.09762816 -32.28759766 104.84863281 C-32.32749904 95.04262686 -32.35328067 85.23670215 -32.36219382 75.43061727 C-32.36740295 70.23959795 -32.37962352 65.04881104 -32.40876007 59.85786629 C-32.43598122 54.96839034 -32.44427127 50.07924179 -32.43827057 45.18969727 C-32.43936781 43.39868323 -32.44728167 41.60765785 -32.46266174 39.81670952 C-32.60364363 22.54773077 -32.60364363 22.54773077 -27.98583984 15.2746582 C-27.60760197 14.62674348 -27.22936409 13.97882875 -26.83966446 13.31128025 C-21.07138101 3.76072846 -10.72492812 0.04176694 0 0 Z " fill="#226699" transform="translate(81.98583984375,77.725341796875)"/>
<path d="M0 0 C-1.38455122 5.11045733 -2.77867201 10.21800397 -4.20703125 15.31640625 C-6.59586117 23.84924124 -8.9221726 32.38461808 -11 41 C-14.40943819 39.73414905 -17.28397829 38.25108362 -20.3125 36.25 C-32.9490997 28.5548766 -46.85568158 24.91652925 -61.5625 24.75 C-62.61824219 24.73573975 -62.61824219 24.73573975 -63.6953125 24.72119141 C-67.80105305 24.63450152 -67.80105305 24.63450152 -71 27 C-71.66743877 29.41344667 -71.66743877 29.41344667 -71 32 C-66.88494738 35.19025196 -62.87650028 36.93642344 -57.9375 38.5 C-57.28193115 38.71156738 -56.6263623 38.92313477 -55.95092773 39.14111328 C-52.87757102 40.1263396 -49.7945166 41.05975049 -46.6953125 41.9609375 C-29.27532633 47.04357686 -12.19679179 53.76481927 -2.75390625 70.1640625 C1.3734262 78.70435595 1.34187498 88.52562506 -0.8828125 97.6015625 C-6.15260082 112.5035467 -16.14897962 121.20877948 -30 128 C-47.92035465 136.54147745 -71.2375371 136.60431741 -89.9453125 130.34960938 C-106.69653769 124.38814394 -106.69653769 124.38814394 -112 120 C-112.92743016 117.4969358 -113 115.69901168 -113 113 C-112.34 113 -111.68 113 -111 113 C-110.89042969 112.34515625 -110.78085937 111.6903125 -110.66796875 111.015625 C-108.88546304 100.75534824 -106.44083884 90.83096812 -103 81 C-99.55278868 82.31632644 -96.25126189 83.83357691 -92.94140625 85.46264648 C-80.89112141 91.31398672 -70.3102053 94.32999331 -56.875 94.4375 C-55.86630859 94.44773193 -54.85761719 94.45796387 -53.81835938 94.46850586 C-52.86509766 94.45698486 -51.91183594 94.44546387 -50.9296875 94.43359375 C-50.07616699 94.42384521 -49.22264648 94.41409668 -48.34326172 94.40405273 C-45.54067223 93.92079731 -44.12222924 92.84753377 -42 91 C-42.08418146 88.07267126 -42.08418146 88.07267126 -43 85 C-45.23118534 83.37534988 -45.23118534 83.37534988 -48.25 82.5 C-49.42175781 82.09652344 -50.59351563 81.69304687 -51.80078125 81.27734375 C-56.64892632 79.76591181 -61.54583583 78.42465787 -66.4375 77.0625 C-84.47637652 72.03085604 -100.21799789 65.4537118 -110.3125 48.83984375 C-113.04724802 43.30387814 -113.37376148 37.94377351 -113.4375 31.875 C-113.44773193 31.1229126 -113.45796387 30.3708252 -113.46850586 29.59594727 C-113.31519236 19.80854216 -109.07436469 11.49224825 -102.5625 4.3125 C-101.716875 3.549375 -100.87125 2.78625 -100 2 C-99.154375 1.195625 -98.30875 0.39125 -97.4375 -0.4375 C-72.44675582 -20.80270798 -25.70265384 -17.13510256 0 0 Z " fill="#54AAEB" transform="translate(861,115)"/>
<path d="M0 0 C4.3375321 -0.07517053 8.67470103 -0.12907363 13.01269531 -0.16479492 C14.48281473 -0.17971429 15.952891 -0.20005727 17.42285156 -0.22631836 C31.97661349 -0.47947043 46.97837827 1.03974553 58.390625 11.109375 C67.4077572 20.79444292 69.65945582 30.25634715 69.3984375 43.109375 C68.91866971 51.96296211 65.02048648 58.40771562 58.75 64.5 C52.3194534 69.73365975 44.13925225 73.13931868 35.78222656 73.11352539 C34.96167786 73.11344986 34.14112915 73.11337433 33.29571533 73.11329651 C32.41953552 73.10813522 31.54335571 73.10297394 30.640625 73.09765625 C29.28405792 73.09553383 29.28405792 73.09553383 27.90008545 73.09336853 C25.01668973 73.08777911 22.13337218 73.07522853 19.25 73.0625 C17.29296987 73.05748363 15.33593853 73.05292096 13.37890625 73.04882812 C8.58590747 73.03781313 3.79296698 73.02055574 -1 73 C-1 71.68 -1 70.36 -1 69 C2.465 68.505 2.465 68.505 6 68 C5.67 47.54 5.34 27.08 5 6 C3.02 5.34 1.04 4.68 -1 4 C-0.67 2.68 -0.34 1.36 0 0 Z M19 5 C18.95371165 13.04923983 18.91814874 21.09842429 18.89637566 29.14776421 C18.88592702 32.8851783 18.8717483 36.6225015 18.84912109 40.35986328 C18.82743096 43.964905 18.81543951 47.56985917 18.81024551 51.17496109 C18.80654284 52.55211898 18.79931266 53.92927194 18.78853989 55.30639267 C18.77407665 57.23139545 18.77318352 59.15648587 18.77294922 61.08154297 C18.768508 62.17852509 18.76406677 63.2755072 18.75949097 64.4057312 C18.73646772 67.16234312 18.73646772 67.16234312 21 69 C29.56154571 69.91012723 37.5916399 69.74695342 45 65 C45.57234375 64.63777344 46.1446875 64.27554688 46.734375 63.90234375 C52.63089667 59.5967153 55.05706898 52.79195546 57 46 C58.12452791 34.3493678 56.59190429 24.77955747 49.875 15.125 C45.29978818 9.61102981 38.99867861 6.38126876 32 5 C29.75092848 4.93209325 27.49998395 4.91500016 25.25 4.9375 C23.49429688 4.95103516 23.49429688 4.95103516 21.703125 4.96484375 C20.81109375 4.97644531 19.9190625 4.98804688 19 5 Z " fill="#F3F3F3" transform="translate(539,298)"/>
<path d="M0 0 C9.18682524 5.53745755 14.26960995 12.75795308 17.6875 22.9296875 C20.65834314 35.39372486 18.39993862 47.43432747 11.921875 58.34765625 C6.90185673 65.29748054 -0.39896112 70.01478149 -8.69140625 72.09765625 C-20.76880107 74.01090691 -31.20469982 72.5031085 -41.265625 65.41015625 C-50.05363189 58.02131325 -53.77854455 47.88808316 -54.8046875 36.703125 C-55.38900381 25.08373712 -52.77198661 16.13457032 -45.265625 7.09765625 C-33.71205618 -4.93973036 -14.82071166 -7.34894404 0 0 Z M-34.453125 5.53515625 C-42.21543599 14.99106237 -42.22977119 24.7629816 -41.453125 36.53515625 C-39.82917314 47.03330172 -35.09426305 58.30430271 -26.453125 64.78515625 C-21.27603585 67.80512492 -16.35131086 68.06499329 -10.453125 67.53515625 C-4.4287868 65.79932999 -0.7948994 62.72066826 2.546875 57.53515625 C5.43815823 51.99238816 6.03121005 47.555388 5.921875 41.34765625 C5.91099854 40.50976562 5.90012207 39.671875 5.88891602 38.80859375 C5.59172974 27.16337768 3.0223144 17.71292343 -4.453125 8.53515625 C-10.7798731 2.63793049 -15.84345446 1.14516704 -24.4453125 1.26953125 C-28.68671233 1.64409643 -31.37295788 2.58071024 -34.453125 5.53515625 Z " fill="#F6F6F6" transform="translate(682.453125,300.46484375)"/>
<path d="M0 0 C1.32 0 2.64 0 4 0 C4.66 -0.99 5.32 -1.98 6 -3 C7.82421875 -2.48828125 7.82421875 -2.48828125 10 -1 C11.14245308 1.64614455 12.01778105 4.06644037 12.8125 6.8125 C13.04130859 7.52470703 13.27011719 8.23691406 13.50585938 8.97070312 C14.72225738 12.9918843 15.32334538 15.86759021 14 20 C11.19431993 19.64700771 10.19618655 19.23064554 8.33203125 17.0390625 C7.83058594 16.24242187 7.32914063 15.44578125 6.8125 14.625 C6.30332031 13.83351563 5.79414062 13.04203125 5.26953125 12.2265625 C4 10 4 10 3 7 C1.21771064 5.85790183 1.21771064 5.85790183 -1 5 C-2.12148438 4.48759766 -2.12148438 4.48759766 -3.265625 3.96484375 C-8.07567331 2.26758385 -12.9713136 2.41575428 -18 3 C-21.07365786 4.80803404 -22.43019732 5.86039464 -24 9 C-24.25550138 14.11002756 -24.24542986 18.2845973 -22 23 C-20.19358532 24.09615567 -20.19358532 24.09615567 -18 25 C-17.22035889 25.34643555 -16.44071777 25.69287109 -15.63745117 26.04980469 C-14.78127197 26.42008789 -13.92509277 26.79037109 -13.04296875 27.171875 C-12.09486328 27.58953125 -11.14675781 28.0071875 -10.16992188 28.4375 C-8.19719913 29.30565303 -6.22065761 30.1651848 -4.24023438 31.015625 C3.21778577 34.32805643 10.61948259 38.13239294 14 46 C14.83650158 52.5525957 15.09770141 59.53639812 11 65 C5.6327964 70.2452217 0.33598626 73.10004455 -7.1875 73.5 C-13.7487701 73.354194 -19.17899018 70.84447251 -25 68 C-25.66 69.65 -26.32 71.3 -27 73 C-28.890625 72.42578125 -28.890625 72.42578125 -31 71 C-32.046875 67.91796875 -32.046875 67.91796875 -32.75 64.1875 C-32.99234375 62.96417969 -33.2346875 61.74085938 -33.484375 60.48046875 C-33.91507968 57.57321218 -34.11153092 54.92768657 -34 52 C-32.68 52 -31.36 52 -30 52 C-28.03515625 54.30078125 -28.03515625 54.30078125 -26.0625 57.3125 C-22.96641585 62.02125621 -20.39638367 64.87873706 -14.96484375 66.671875 C-10.12689951 67.47980207 -5.6153954 67.6874023 -1.0625 65.75 C1.73716457 63.37452703 2.82567996 61.7988345 3.18359375 58.10546875 C3.37018136 52.69718107 3.37018136 52.69718107 1 48 C-0.64976203 47.29253448 -2.32086129 46.63459863 -4 46 C-30.6157388 35.09083298 -30.6157388 35.09083298 -35.3125 25.25 C-36.5272849 19.50738045 -37.21580195 13.62774325 -34.4375 8.25 C-31.32960845 3.60463559 -27.26776639 0.16025257 -22.3125 -2.375 C-14.21817735 -3.90223069 -7.36194079 -3.6809704 0 0 Z " fill="#F4F4F4" transform="translate(840,300)"/>
<path d="M0 0 C2.06658644 -0.32781891 2.06658644 -0.32781891 4 -1 C5.33333333 -1.33333333 6.66666667 -1.66666667 8 -2 C14.5625 12.6875 14.5625 12.6875 14 20 C12.68 20 11.36 20 10 20 C8.5078125 17.98828125 8.5078125 17.98828125 7.125 15.3125 C3.89857695 9.55219419 0.28935357 5.47697144 -6 3 C-9.53075702 2.606819 -9.53075702 2.606819 -13.375 2.625 C-15.30472656 2.58246094 -15.30472656 2.58246094 -17.2734375 2.5390625 C-22.77234634 3.21922104 -25.74448836 5.77438149 -29.625 9.5625 C-36.3120718 18.26218564 -36.93922907 28.40821193 -36 39 C-34.60745473 47.09479553 -32.1394969 53.9302697 -26.1875 59.75 C-19.53675885 64.44464081 -13.99485688 65.86794318 -6 65 C1.15893413 63.72244101 4.84781196 60.8556498 9 55 C9.61875 54.195625 10.2375 53.39125 10.875 52.5625 C11.24625 52.046875 11.6175 51.53125 12 51 C12.99 51.33 13.98 51.66 15 52 C14.44560113 57.82118813 12.58342847 61.59776221 8.2734375 65.60546875 C-0.38042576 72.58717118 -9.03937509 73.96122411 -20 73 C-29.48113506 71.37698116 -37.09796504 66.96482447 -42.875 59.25 C-49.92751457 48.17215228 -51.05239951 34.68781436 -48.34375 21.90234375 C-47.42758877 19.41054317 -46.36578353 17.27495895 -45 15 C-44.50242187 14.14019531 -44.00484375 13.28039062 -43.4921875 12.39453125 C-33.74423839 -2.95282119 -16.54692471 -7.18074091 0 0 Z " fill="#F5F5F5" transform="translate(770,300)"/>
<path d="M0 0 C0.60956543 0.32234619 1.21913086 0.64469238 1.84716797 0.97680664 C2.08167221 5.12166919 2.22230396 9.26480815 2.34716797 13.41430664 C2.44771484 15.16130859 2.44771484 15.16130859 2.55029297 16.94360352 C2.69340323 23.29412145 2.36034667 27.22699025 -1.89111328 32.13305664 C-8.0633092 38.24924089 -14.19223674 41.21532972 -22.90283203 41.60180664 C-26.95542348 41.44887866 -29.71003624 41.18060324 -32.90283203 38.60180664 C-36.82206019 34.02937379 -36.61121835 30.34218228 -36.55908203 24.43774414 C-35.66285565 16.8025848 -30.65042026 10.63246943 -25.12158203 5.51586914 C-18.12720728 0.04804444 -8.69927771 -4.13457393 0 0 Z " fill="#000102" transform="translate(690.15283203125,168.023193359375)"/>
</svg>
