<svg width="535.157" height="74.952" viewBox="0 0 535.157 74.952" xmlns="http://www.w3.org/2000/svg"><g id="svgGroup" stroke-linecap="round" fill-rule="evenodd" font-size="9pt" stroke="#960e0e" stroke-width="0.8mm" fill="#fffefe" style="stroke:#960e0e;stroke-width:0.8mm;fill:#fffefe"><path d="M 231.739 4.639 L 231.739 31.055 A 53.974 53.974 0 0 1 240.308 24.683 A 20.692 20.692 0 0 1 244.685 22.668 A 16.28 16.28 0 0 1 249.658 21.875 A 15.991 15.991 0 0 1 253.349 22.28 A 11.761 11.761 0 0 1 257.593 24.195 A 14.317 14.317 0 0 1 262.403 30.274 A 20.226 20.226 0 0 1 263.997 37.542 A 23.461 23.461 0 0 1 264.014 38.428 L 264.014 58.74 A 50.094 50.094 0 0 0 264.02 59.546 Q 264.038 60.681 264.112 61.377 Q 264.209 62.305 264.722 63.062 A 10.386 10.386 0 0 0 265.062 63.532 Q 265.447 64.035 266.03 64.709 A 45.87 45.87 0 0 0 266.406 65.137 Q 267.204 66.014 267.611 66.599 A 5.262 5.262 0 0 1 267.774 66.846 A 1.966 1.966 0 0 1 267.971 67.3 Q 268.119 67.783 268.154 68.521 A 10.136 10.136 0 0 1 268.164 68.994 A 5.586 5.586 0 0 1 268.012 70.339 A 3.692 3.692 0 0 1 266.846 72.29 A 4.57 4.57 0 0 1 264.693 73.32 A 6.484 6.484 0 0 1 263.428 73.438 L 242.822 73.438 A 5.518 5.518 0 0 1 241.522 73.293 A 3.645 3.645 0 0 1 239.649 72.217 A 4.152 4.152 0 0 1 238.641 70.197 A 5.973 5.973 0 0 1 238.526 68.994 A 6.283 6.283 0 0 1 238.611 67.921 Q 238.714 67.33 238.939 66.863 A 2.955 2.955 0 0 1 239.405 66.162 A 26.373 26.373 0 0 0 240.503 64.856 A 31.666 31.666 0 0 0 241.162 63.989 A 3.898 3.898 0 0 0 241.715 62.88 Q 241.888 62.347 241.97 61.695 A 10.104 10.104 0 0 0 242.041 60.449 L 242.041 43.701 A 11.084 11.084 0 0 0 241.089 39.16 A 3.384 3.384 0 0 0 238.669 37.168 A 5.935 5.935 0 0 0 237.256 37.012 A 7.938 7.938 0 0 0 235.705 37.157 A 6.021 6.021 0 0 0 234.18 37.671 A 10.719 10.719 0 0 0 231.739 39.356 L 231.739 60.01 Q 231.739 62.009 232.164 63.138 A 3.729 3.729 0 0 0 232.276 63.404 Q 232.755 64.427 233.369 65.081 A 4.429 4.429 0 0 0 233.521 65.235 A 9.576 9.576 0 0 1 234.766 66.699 A 2.611 2.611 0 0 1 235.098 67.405 Q 235.205 67.748 235.256 68.167 A 6.866 6.866 0 0 1 235.303 68.994 A 5.808 5.808 0 0 1 235.145 70.386 A 4.104 4.104 0 0 1 234.18 72.217 A 3.659 3.659 0 0 1 232.253 73.306 A 5.569 5.569 0 0 1 231.006 73.438 L 210.401 73.438 A 6.443 6.443 0 0 1 208.876 73.266 A 4.658 4.658 0 0 1 206.958 72.315 A 3.604 3.604 0 0 1 205.767 70.349 Q 205.615 69.733 205.615 68.994 Q 205.615 67.334 206.25 66.431 A 9.099 9.099 0 0 1 207.691 64.82 A 6.181 6.181 0 0 0 208.543 63.892 A 8.213 8.213 0 0 0 209.131 62.989 Q 209.766 61.865 209.766 59.766 L 209.766 19.776 A 10.991 10.991 0 0 0 209.71 18.627 Q 209.567 17.269 209.058 16.48 Q 208.35 15.381 207.398 14.746 A 9.128 9.128 0 0 1 206.107 13.712 A 8.134 8.134 0 0 1 205.738 13.33 Q 205.03 12.549 205.03 10.938 A 4.601 4.601 0 0 1 205.208 9.623 A 3.512 3.512 0 0 1 206.299 7.935 Q 207.569 6.836 209.131 6.201 L 219.776 1.953 A 55.263 55.263 0 0 1 223.584 0.611 A 13.347 13.347 0 0 1 227.588 0 Q 229.59 0 230.664 1.392 A 5.15 5.15 0 0 1 231.738 4.574 A 6.366 6.366 0 0 1 231.739 4.639 Z M 5.908 5.86 L 37.598 5.86 A 31.285 31.285 0 0 0 40.381 5.738 Q 41.748 5.615 43.115 5.274 L 45.947 4.59 A 12.442 12.442 0 0 1 48.877 4.248 A 12.192 12.192 0 0 1 50.333 4.329 Q 52.052 4.537 53.052 5.274 A 6.485 6.485 0 0 1 54.948 7.508 A 7.891 7.891 0 0 1 55.2 8.032 A 51.831 51.831 0 0 1 55.963 9.882 A 70.925 70.925 0 0 1 56.739 11.963 L 56.787 12.061 L 56.787 12.11 A 0.331 0.331 0 0 1 56.837 12.177 Q 56.904 12.292 56.958 12.525 Q 57.03 12.836 57.079 12.983 A 1.575 1.575 0 0 0 57.08 12.989 Q 57.617 14.502 58.325 16.626 A 70.046 70.046 0 0 1 59.595 20.874 A 20.197 20.197 0 0 1 59.937 22.388 Q 60.156 23.584 60.156 24.561 A 4.238 4.238 0 0 1 59.875 26.137 Q 59.472 27.153 58.491 27.837 A 4.947 4.947 0 0 1 58.277 27.979 Q 56.397 29.151 54.395 29.151 A 6.855 6.855 0 0 1 53.186 29.051 Q 51.961 28.831 51.221 28.125 A 8.861 8.861 0 0 1 50.254 27.024 Q 49.715 26.305 49.219 25.391 Q 47.559 22.266 46.338 20.386 A 7.544 7.544 0 0 0 44.298 18.256 A 7.194 7.194 0 0 0 43.189 17.627 A 7.628 7.628 0 0 0 41.79 17.164 Q 40.32 16.815 38.191 16.759 A 31.898 31.898 0 0 0 37.354 16.748 L 31.006 16.748 L 31.006 37.158 L 36.133 37.158 A 8.601 8.601 0 0 0 37.337 37.081 Q 38.709 36.886 39.423 36.205 A 2.351 2.351 0 0 0 39.624 35.987 A 7.78 7.78 0 0 0 40.98 33.467 A 8.897 8.897 0 0 0 41.04 33.277 A 8.277 8.277 0 0 1 42.022 31.136 A 7.587 7.587 0 0 1 42.432 30.567 A 2.64 2.64 0 0 1 43.487 29.789 Q 44.348 29.419 45.671 29.396 A 10.225 10.225 0 0 1 45.85 29.395 A 5.474 5.474 0 0 1 47.891 29.752 Q 50.012 30.598 50.733 33.448 L 53.711 45.85 A 38.387 38.387 0 0 1 53.809 46.356 A 46.999 46.999 0 0 1 53.906 46.9 A 6.441 6.441 0 0 1 54.004 47.931 A 5.932 5.932 0 0 1 54.004 47.998 A 4.906 4.906 0 0 1 53.703 49.746 A 4.381 4.381 0 0 1 52.539 51.441 A 5.066 5.066 0 0 1 49.073 52.783 A 6.497 6.497 0 0 1 48.975 52.783 Q 47.461 52.783 46.509 52.051 A 13.12 13.12 0 0 1 45.49 51.176 A 17.444 17.444 0 0 1 44.58 50.244 A 25.931 25.931 0 0 0 43.82 49.39 Q 43.068 48.583 42.474 48.119 A 5.636 5.636 0 0 0 42.212 47.925 A 4.678 4.678 0 0 0 40.113 47.119 A 13.986 13.986 0 0 0 39.343 47.045 Q 38.327 46.973 36.817 46.973 L 31.006 46.973 L 31.006 57.422 Q 31.006 58.862 31.466 59.798 A 2.904 2.904 0 0 0 32.276 60.816 A 10.067 10.067 0 0 0 34.778 62.25 A 11.491 11.491 0 0 0 35.181 62.403 A 8.431 8.431 0 0 1 38.086 64.16 A 3.414 3.414 0 0 1 38.931 65.434 Q 39.354 66.501 39.356 68.103 A 11.961 11.961 0 0 1 39.356 68.115 A 7.575 7.575 0 0 1 39.214 69.635 Q 39.032 70.519 38.62 71.186 A 3.755 3.755 0 0 1 37.744 72.168 Q 36.133 73.438 33.496 73.438 L 5.908 73.438 A 8.647 8.647 0 0 1 4.037 73.246 A 5.987 5.987 0 0 1 1.66 72.168 A 3.988 3.988 0 0 1 0.264 70.093 Q 0.058 69.414 0.013 68.589 A 8.694 8.694 0 0 1 0 68.115 A 9.066 9.066 0 0 1 0.098 66.739 Q 0.32 65.295 1.05 64.429 Q 2.1 63.184 3.491 62.378 A 12.755 12.755 0 0 0 5.315 61.107 A 11.19 11.19 0 0 0 5.933 60.547 Q 6.823 59.678 6.958 58.072 A 7.15 7.15 0 0 0 6.983 57.471 L 6.983 21.826 Q 6.983 19.776 5.933 18.726 Q 4.883 17.676 3.491 16.895 A 9.025 9.025 0 0 1 1.05 14.893 A 3.802 3.802 0 0 1 0.356 13.651 Q 0 12.631 0 11.182 A 7.359 7.359 0 0 1 0.147 9.663 Q 0.493 8.022 1.66 7.129 Q 3.318 5.862 5.901 5.86 A 11.129 11.129 0 0 1 5.908 5.86 Z M 171.436 73.389 L 171.387 73.389 A 3.629 3.629 0 0 0 171.103 73.264 Q 170.773 73.133 170.279 72.99 A 19.483 19.483 0 0 0 169.776 72.852 Q 168.653 72.559 168.115 72.559 A 3.321 3.321 0 0 0 165.664 73.61 A 4.436 4.436 0 0 0 165.528 73.755 A 3.63 3.63 0 0 1 164.372 74.633 A 3.435 3.435 0 0 1 162.891 74.951 A 5.185 5.185 0 0 1 161.471 74.767 A 3.83 3.83 0 0 1 159.595 73.584 A 8.963 8.963 0 0 1 157.993 70.912 A 10.54 10.54 0 0 1 157.788 70.337 A 210.217 210.217 0 0 1 157.208 68.524 A 165.328 165.328 0 0 1 156.69 66.846 Q 156.348 65.479 155.908 64.136 A 8.814 8.814 0 0 1 155.469 61.377 A 7.686 7.686 0 0 1 155.661 59.61 A 5.345 5.345 0 0 1 156.836 57.276 Q 158.202 55.715 160.784 55.713 A 8.23 8.23 0 0 1 160.791 55.713 Q 163.008 55.713 164.555 56.551 A 5.745 5.745 0 0 1 164.99 56.812 A 12.926 12.926 0 0 1 167.945 59.522 A 388.526 388.526 0 0 0 170.581 62.769 A 11.758 11.758 0 0 0 173.828 65.503 Q 175.539 66.49 178.038 66.59 A 14.35 14.35 0 0 0 178.614 66.602 A 5.33 5.33 0 0 0 179.809 66.476 Q 180.948 66.214 181.641 65.406 A 4.162 4.162 0 0 0 182.553 63.491 A 5.933 5.933 0 0 0 182.666 62.305 A 7.905 7.905 0 0 0 182.586 61.13 Q 182.363 59.656 181.526 59 A 2.224 2.224 0 0 0 181.201 58.789 Q 179.737 58.008 177.442 57.569 A 90.871 90.871 0 0 1 171.376 56.159 A 80.491 80.491 0 0 1 169.458 55.615 A 26.082 26.082 0 0 1 165.122 53.913 A 21.857 21.857 0 0 1 162.769 52.539 Q 159.864 50.586 158.179 47.364 Q 156.82 44.764 156.557 40.957 A 27.53 27.53 0 0 1 156.494 39.063 A 18.006 18.006 0 0 1 156.994 34.71 A 12.961 12.961 0 0 1 159.766 29.273 A 19.165 19.165 0 0 1 167.159 24.038 A 22.802 22.802 0 0 1 168.091 23.682 Q 173.145 21.875 178.369 21.875 A 51.894 51.894 0 0 1 182.3 22.022 Q 184.229 22.168 186.133 22.803 A 1.577 1.577 0 0 1 186.248 22.832 Q 186.547 22.916 187.281 23.194 A 125.119 125.119 0 0 0 189.063 23.853 L 189.942 24.17 A 3.756 3.756 0 0 0 192.664 23.058 A 4.593 4.593 0 0 0 192.7 23.023 A 3.758 3.758 0 0 1 195.409 21.876 A 4.491 4.491 0 0 1 195.459 21.875 A 4.163 4.163 0 0 1 196.716 22.054 A 3.141 3.141 0 0 1 198.487 23.462 A 10.297 10.297 0 0 1 199.526 25.766 A 12.855 12.855 0 0 1 199.878 27.149 A 171.995 171.995 0 0 1 200.165 28.634 Q 200.385 29.798 200.537 30.713 Q 200.733 31.836 200.928 32.984 A 13.512 13.512 0 0 1 201.123 35.254 A 7.864 7.864 0 0 1 200.22 38.941 Q 199.317 40.674 197.022 40.674 A 5.868 5.868 0 0 1 192.969 39.087 A 36.857 36.857 0 0 1 190.772 36.922 A 44.905 44.905 0 0 1 189.453 35.449 A 21.151 21.151 0 0 0 185.401 31.812 A 8.697 8.697 0 0 0 182.187 30.467 A 12.259 12.259 0 0 0 179.688 30.225 A 6.453 6.453 0 0 0 177.86 30.476 A 5.632 5.632 0 0 0 176.709 30.957 A 2.435 2.435 0 0 0 175.501 32.591 Q 175.393 33.036 175.391 33.577 A 5.498 5.498 0 0 0 175.391 33.594 A 5.359 5.359 0 0 0 175.462 34.499 Q 175.548 34.997 175.735 35.393 A 2.526 2.526 0 0 0 176.123 35.987 A 4.561 4.561 0 0 0 176.933 36.7 Q 177.339 36.984 177.844 37.23 A 8.693 8.693 0 0 0 178.223 37.403 A 14.014 14.014 0 0 0 181.299 38.33 A 75.6 75.6 0 0 1 184.4 38.96 A 66.202 66.202 0 0 1 184.424 38.965 Q 188.916 39.942 192.822 42.261 Q 196.729 44.58 199.146 48.218 A 14.414 14.414 0 0 1 201.409 54.412 A 18.631 18.631 0 0 1 201.563 56.836 Q 201.563 63.526 198.535 67.481 Q 195.508 71.436 190.503 73.145 A 32.008 32.008 0 0 1 182.906 74.711 A 38.835 38.835 0 0 1 179.541 74.854 Q 178.028 74.854 175.366 74.463 Q 173.06 74.125 171.799 73.566 A 5.26 5.26 0 0 1 171.436 73.389 Z M 505.03 73.389 L 504.981 73.389 A 3.629 3.629 0 0 0 504.697 73.264 Q 504.367 73.133 503.872 72.99 A 19.483 19.483 0 0 0 503.369 72.852 Q 502.246 72.559 501.709 72.559 A 3.321 3.321 0 0 0 499.257 73.61 A 4.436 4.436 0 0 0 499.121 73.755 A 3.63 3.63 0 0 1 497.966 74.633 A 3.435 3.435 0 0 1 496.485 74.951 A 5.185 5.185 0 0 1 495.064 74.767 A 3.83 3.83 0 0 1 493.189 73.584 A 8.963 8.963 0 0 1 491.587 70.912 A 10.54 10.54 0 0 1 491.382 70.337 A 210.217 210.217 0 0 1 490.802 68.524 A 165.328 165.328 0 0 1 490.283 66.846 Q 489.942 65.479 489.502 64.136 A 8.814 8.814 0 0 1 489.063 61.377 A 7.686 7.686 0 0 1 489.255 59.61 A 5.345 5.345 0 0 1 490.43 57.276 Q 491.795 55.715 494.378 55.713 A 8.23 8.23 0 0 1 494.385 55.713 Q 496.602 55.713 498.149 56.551 A 5.745 5.745 0 0 1 498.584 56.812 A 12.926 12.926 0 0 1 501.538 59.522 A 388.526 388.526 0 0 0 504.175 62.769 A 11.758 11.758 0 0 0 507.422 65.503 Q 509.133 66.49 511.632 66.59 A 14.35 14.35 0 0 0 512.207 66.602 A 5.33 5.33 0 0 0 513.403 66.476 Q 514.542 66.214 515.235 65.406 A 4.162 4.162 0 0 0 516.147 63.491 A 5.933 5.933 0 0 0 516.26 62.305 A 7.905 7.905 0 0 0 516.18 61.13 Q 515.957 59.656 515.12 59 A 2.224 2.224 0 0 0 514.795 58.789 Q 513.33 58.008 511.035 57.569 A 90.871 90.871 0 0 1 504.97 56.159 A 80.491 80.491 0 0 1 503.052 55.615 A 26.082 26.082 0 0 1 498.716 53.913 A 21.857 21.857 0 0 1 496.363 52.539 Q 493.457 50.586 491.773 47.364 Q 490.414 44.764 490.151 40.957 A 27.53 27.53 0 0 1 490.088 39.063 A 18.006 18.006 0 0 1 490.587 34.71 A 12.961 12.961 0 0 1 493.36 29.273 A 19.165 19.165 0 0 1 500.753 24.038 A 22.802 22.802 0 0 1 501.685 23.682 Q 506.739 21.875 511.963 21.875 A 51.894 51.894 0 0 1 515.894 22.022 Q 517.822 22.168 519.727 22.803 A 1.577 1.577 0 0 1 519.842 22.832 Q 520.14 22.916 520.874 23.194 A 125.119 125.119 0 0 0 522.656 23.853 L 523.535 24.17 A 3.756 3.756 0 0 0 526.258 23.058 A 4.593 4.593 0 0 0 526.294 23.023 A 3.758 3.758 0 0 1 529.003 21.876 A 4.491 4.491 0 0 1 529.053 21.875 A 4.163 4.163 0 0 1 530.31 22.054 A 3.141 3.141 0 0 1 532.08 23.462 A 10.297 10.297 0 0 1 533.12 25.766 A 12.855 12.855 0 0 1 533.472 27.149 A 171.995 171.995 0 0 1 533.759 28.634 Q 533.978 29.798 534.131 30.713 Q 534.326 31.836 534.522 32.984 A 13.512 13.512 0 0 1 534.717 35.254 A 7.864 7.864 0 0 1 533.814 38.941 Q 532.91 40.674 530.615 40.674 A 5.868 5.868 0 0 1 526.563 39.087 A 36.857 36.857 0 0 1 524.365 36.922 A 44.905 44.905 0 0 1 523.047 35.449 A 21.151 21.151 0 0 0 518.994 31.812 A 8.697 8.697 0 0 0 515.78 30.467 A 12.259 12.259 0 0 0 513.281 30.225 A 6.453 6.453 0 0 0 511.453 30.476 A 5.632 5.632 0 0 0 510.303 30.957 A 2.435 2.435 0 0 0 509.095 32.591 Q 508.986 33.036 508.985 33.577 A 5.498 5.498 0 0 0 508.985 33.594 A 5.359 5.359 0 0 0 509.056 34.499 Q 509.142 34.997 509.329 35.393 A 2.526 2.526 0 0 0 509.717 35.987 A 4.561 4.561 0 0 0 510.527 36.7 Q 510.933 36.984 511.438 37.23 A 8.693 8.693 0 0 0 511.817 37.403 A 14.014 14.014 0 0 0 514.893 38.33 A 75.6 75.6 0 0 1 517.994 38.96 A 66.202 66.202 0 0 1 518.018 38.965 Q 522.51 39.942 526.416 42.261 Q 530.322 44.58 532.739 48.218 A 14.414 14.414 0 0 1 535.003 54.412 A 18.631 18.631 0 0 1 535.156 56.836 Q 535.156 63.526 532.129 67.481 Q 529.102 71.436 524.097 73.145 A 32.008 32.008 0 0 1 516.499 74.711 A 38.835 38.835 0 0 1 513.135 74.854 Q 511.621 74.854 508.96 74.463 Q 506.654 74.125 505.393 73.566 A 5.26 5.26 0 0 1 505.03 73.389 Z M 127.002 46.729 L 127.002 34.033 A 7.146 7.146 0 0 0 126.911 32.934 Q 126.786 32.133 126.489 31.201 A 2.9 2.9 0 0 0 126.131 30.441 Q 125.586 29.644 124.556 29.594 A 2.894 2.894 0 0 0 124.414 29.59 A 2.771 2.771 0 0 0 123.715 29.672 Q 122.892 29.886 122.591 30.668 A 2.167 2.167 0 0 0 122.534 30.835 A 9.259 9.259 0 0 0 122.238 32.197 A 7.452 7.452 0 0 0 122.168 33.203 A 21.052 21.052 0 0 0 122.193 34.204 A 22.076 22.076 0 0 1 122.217 35.254 A 11.351 11.351 0 0 1 121.927 37.911 A 6.662 6.662 0 0 1 118.75 42.31 A 14.898 14.898 0 0 1 112.472 44.265 A 18.366 18.366 0 0 1 110.84 44.336 A 14.002 14.002 0 0 1 107.576 43.971 A 11.031 11.031 0 0 1 104.395 42.676 A 5.37 5.37 0 0 1 101.985 39.41 Q 101.711 38.443 101.668 37.262 A 12.284 12.284 0 0 1 101.66 36.817 A 8.214 8.214 0 0 1 102.32 33.594 A 10.972 10.972 0 0 1 103.754 31.121 A 10.199 10.199 0 0 1 104.004 30.811 Q 106.983 27.198 111.499 25.293 A 38.153 38.153 0 0 1 121.021 22.681 A 73.299 73.299 0 0 1 126.749 22.09 A 59.394 59.394 0 0 1 130.42 21.973 Q 135.401 21.973 139.551 23.389 A 14.132 14.132 0 0 1 144.187 25.975 A 13.274 13.274 0 0 1 146.192 28.101 Q 148.351 30.959 148.638 35.525 A 22.951 22.951 0 0 1 148.682 36.963 L 148.682 59.473 Q 148.682 60.303 149.072 60.938 A 1.275 1.275 0 0 0 149.911 61.522 A 2.14 2.14 0 0 0 150.391 61.573 Q 151.123 61.573 151.636 61.109 Q 152.149 60.645 152.881 60.645 A 3.259 3.259 0 0 1 153.734 60.75 A 2.249 2.249 0 0 1 155.005 61.621 A 3.723 3.723 0 0 1 155.701 63.582 A 4.678 4.678 0 0 1 155.713 63.916 A 9.392 9.392 0 0 1 155.097 67.359 A 8.663 8.663 0 0 1 153.638 69.8 A 13.425 13.425 0 0 1 148.487 73.56 A 16.21 16.21 0 0 1 143.65 74.792 A 15.071 15.071 0 0 1 142.285 74.854 A 17.86 17.86 0 0 1 136.635 73.909 A 21.522 21.522 0 0 1 134.888 73.242 A 10.53 10.53 0 0 1 132.063 71.487 A 8.795 8.795 0 0 1 129.737 68.213 A 13.952 13.952 0 0 1 123.719 72.953 A 17.136 17.136 0 0 1 122.925 73.267 A 25.947 25.947 0 0 1 117.459 74.649 A 22.375 22.375 0 0 1 114.453 74.854 A 17.724 17.724 0 0 1 108.233 73.771 A 16.888 16.888 0 0 1 107.349 73.413 A 12.454 12.454 0 0 1 102.051 69.141 Q 100.049 66.309 100.049 62.207 A 15.869 15.869 0 0 1 100.396 58.803 A 11.271 11.271 0 0 1 102.149 54.712 Q 104.248 51.709 107.642 49.878 A 25.978 25.978 0 0 1 114.99 47.266 A 40.936 40.936 0 0 1 120.525 46.546 A 35.557 35.557 0 0 1 122.608 46.485 A 101.134 101.134 0 0 1 124.805 46.509 A 13.961 13.961 0 0 1 127.002 46.729 Z M 306.201 57.471 L 306.201 21.826 Q 306.201 19.678 305.176 18.653 A 10.49 10.49 0 0 0 303.141 17.076 A 11.94 11.94 0 0 0 302.783 16.87 A 8.446 8.446 0 0 1 300.391 14.893 Q 299.651 14.012 299.445 12.47 A 9.753 9.753 0 0 1 299.365 11.182 A 7.228 7.228 0 0 1 299.517 9.649 Q 299.864 8.053 301.001 7.154 A 5.807 5.807 0 0 1 303.348 6.057 Q 304.214 5.86 305.225 5.86 L 334.326 5.86 A 46.445 46.445 0 0 1 345.92 7.258 A 39.186 39.186 0 0 1 353.955 10.279 Q 362.647 14.698 367.7 22.852 A 33.198 33.198 0 0 1 372.157 34.9 A 43.978 43.978 0 0 1 372.754 42.285 A 34.787 34.787 0 0 1 371.789 50.662 A 27.071 27.071 0 0 1 368.213 58.985 Q 363.672 65.967 356.006 69.702 A 37.345 37.345 0 0 1 342.029 73.337 A 44.644 44.644 0 0 1 339.014 73.438 L 305.225 73.438 A 8.94 8.94 0 0 1 303.462 73.274 Q 302.009 72.982 300.977 72.168 Q 299.536 71.033 299.384 68.688 A 8.821 8.821 0 0 1 299.365 68.115 A 10.07 10.07 0 0 1 299.447 66.792 Q 299.654 65.233 300.391 64.356 Q 301.416 63.135 302.783 62.354 A 12.279 12.279 0 0 0 304.502 61.176 A 10.717 10.717 0 0 0 305.176 60.572 A 3.069 3.069 0 0 0 305.912 59.392 Q 306.201 58.586 306.201 57.471 Z M 485.479 40.847 A 10.074 10.074 0 0 0 485.889 37.891 A 16.253 16.253 0 0 0 485.689 35.292 A 12.245 12.245 0 0 0 483.936 30.591 A 15.631 15.631 0 0 0 478.809 25.611 A 24.099 24.099 0 0 0 471.875 22.779 A 34.918 34.918 0 0 0 471.758 22.751 A 31.646 31.646 0 0 0 464.453 21.875 A 32.875 32.875 0 0 0 459.531 22.232 A 25.097 25.097 0 0 0 450.22 25.513 A 24.647 24.647 0 0 0 440.918 35.449 A 27.987 27.987 0 0 0 438.57 41.741 A 33.932 33.932 0 0 0 437.647 49.805 A 29.99 29.99 0 0 0 437.833 53.187 A 23.877 23.877 0 0 0 441.04 62.891 Q 444.434 68.555 450.269 71.704 A 25.36 25.36 0 0 0 455.356 73.772 A 29.228 29.228 0 0 0 463.428 74.854 A 26.878 26.878 0 0 0 465.223 74.793 A 30.03 30.03 0 0 0 471.216 73.755 A 26.827 26.827 0 0 0 478.589 70.484 A 17.637 17.637 0 0 0 484.058 65.039 A 12.866 12.866 0 0 0 485.614 61.487 A 15.692 15.692 0 0 0 486.133 57.373 A 5.74 5.74 0 0 0 486.073 56.546 A 6.579 6.579 0 0 0 485.645 55.005 Q 485.29 54.136 484.394 53.898 A 2.93 2.93 0 0 0 483.643 53.809 Q 482.994 53.809 481.571 54.613 A 21.78 21.78 0 0 0 480.713 55.127 A 45.661 45.661 0 0 1 478.455 56.452 A 62.181 62.181 0 0 1 475.879 57.788 A 14.468 14.468 0 0 1 474.938 58.21 A 12.091 12.091 0 0 1 470.362 59.131 A 18.822 18.822 0 0 1 470.246 59.131 Q 468.462 59.12 466.93 58.77 A 10.55 10.55 0 0 1 462.647 56.763 A 13.161 13.161 0 0 1 460.866 55.054 A 14.014 14.014 0 0 1 458.301 50.586 A 23.52 23.52 0 0 1 456.934 42.578 A 13.076 13.076 0 0 1 456.935 42.438 Q 456.945 41.438 457.107 40.035 A 47.252 47.252 0 0 1 457.3 38.574 A 15.602 15.602 0 0 1 457.511 37.434 A 13.111 13.111 0 0 1 458.74 34.082 A 4.758 4.758 0 0 1 459.267 33.29 A 3.22 3.22 0 0 1 461.865 32.08 A 6.749 6.749 0 0 1 462.046 32.083 Q 464.568 32.15 465.064 34.131 A 18.355 18.355 0 0 1 465.08 34.195 A 16.641 16.641 0 0 1 465.576 38.184 Q 465.576 42.578 468.164 44.922 A 8.765 8.765 0 0 0 472.124 46.95 A 12.798 12.798 0 0 0 475.049 47.266 A 12.544 12.544 0 0 0 482.569 44.873 A 7.587 7.587 0 0 0 485.479 40.847 Z M 91.358 4.639 L 91.358 58.74 A 25.429 25.429 0 0 0 91.504 61.499 A 3.818 3.818 0 0 0 92.341 63.486 A 5.007 5.007 0 0 0 92.725 63.916 A 59.05 59.05 0 0 0 93.361 64.543 Q 94.252 65.407 94.949 66.001 A 20.517 20.517 0 0 0 94.995 66.04 Q 95.947 66.846 95.947 68.994 A 5.61 5.61 0 0 1 95.8 70.321 A 3.601 3.601 0 0 1 94.58 72.315 Q 93.213 73.438 91.114 73.438 L 69.629 73.438 A 6.446 6.446 0 0 1 68.044 73.252 A 4.765 4.765 0 0 1 66.162 72.315 Q 64.795 71.192 64.795 68.994 A 7.985 7.985 0 0 1 64.849 68.031 Q 64.972 67.025 65.374 66.428 A 2.154 2.154 0 0 1 65.479 66.284 Q 66.162 65.43 67.09 64.795 A 5.019 5.019 0 0 0 68.13 63.831 A 6.616 6.616 0 0 0 68.701 63.013 A 3.802 3.802 0 0 0 69.069 62.14 Q 69.328 61.262 69.375 59.967 A 16.404 16.404 0 0 0 69.385 59.375 L 69.385 19.776 Q 69.385 17.684 68.763 16.604 A 2.754 2.754 0 0 0 68.604 16.358 A 5.858 5.858 0 0 0 67.596 15.275 A 4.998 4.998 0 0 0 66.773 14.722 A 8.424 8.424 0 0 1 65.402 13.814 A 7.417 7.417 0 0 1 64.942 13.404 A 2.246 2.246 0 0 1 64.414 12.577 Q 64.279 12.224 64.216 11.783 A 5.965 5.965 0 0 1 64.16 10.938 A 4.807 4.807 0 0 1 64.321 9.66 A 3.428 3.428 0 0 1 65.43 7.91 Q 66.699 6.836 68.311 6.201 L 79.199 1.953 A 46.476 46.476 0 0 1 83.106 0.586 A 14.027 14.027 0 0 1 87.158 0 Q 89.16 0 90.259 1.367 A 4.974 4.974 0 0 1 91.346 4.258 A 6.331 6.331 0 0 1 91.358 4.639 Z M 413.555 22.68 A 33.085 33.085 0 0 0 406.104 21.875 A 35.464 35.464 0 0 0 404.687 21.903 A 30.232 30.232 0 0 0 392.139 25.073 Q 385.791 28.272 381.983 34.131 A 22.74 22.74 0 0 0 379.124 40.51 A 27.656 27.656 0 0 0 378.174 47.901 A 34.447 34.447 0 0 0 378.539 53.002 A 26.514 26.514 0 0 0 381.568 62.085 Q 384.961 68.164 391.065 71.509 A 26.192 26.192 0 0 0 397.891 74.069 A 33.285 33.285 0 0 0 405.274 74.854 A 35.407 35.407 0 0 0 407.298 74.796 A 29.709 29.709 0 0 0 419.312 71.607 A 25.633 25.633 0 0 0 429.395 62.476 A 23.038 23.038 0 0 0 432.244 55.965 A 28.361 28.361 0 0 0 433.155 48.633 A 33.862 33.862 0 0 0 432.751 43.309 A 25.796 25.796 0 0 0 429.737 34.522 A 23.904 23.904 0 0 0 420.239 25.196 A 26.116 26.116 0 0 0 413.555 22.68 Z M 332.373 16.748 L 330.225 16.748 L 330.225 54.932 A 13.053 13.053 0 0 0 330.421 57.257 Q 330.665 58.608 331.216 59.701 A 7.451 7.451 0 0 0 331.616 60.401 A 4.303 4.303 0 0 0 333.811 62.1 Q 335.023 62.549 336.719 62.549 A 9.674 9.674 0 0 0 339.381 62.2 A 7.402 7.402 0 0 0 342.578 60.352 A 13.767 13.767 0 0 0 345.357 56.424 A 16.955 16.955 0 0 0 346.021 54.834 A 31.681 31.681 0 0 0 347.656 47.949 A 67.655 67.655 0 0 0 347.924 45.4 Q 348.096 43.378 348.096 41.699 A 47.3 47.3 0 0 0 347.855 37.037 A 59.413 59.413 0 0 0 347.412 33.618 Q 346.729 29.297 344.995 25.464 A 17.305 17.305 0 0 0 341.989 20.851 A 15.849 15.849 0 0 0 340.21 19.19 A 10.85 10.85 0 0 0 335.621 17.07 A 15.549 15.549 0 0 0 332.373 16.748 Z M 410.385 63.253 A 2.725 2.725 0 0 0 410.62 62.793 A 9.439 9.439 0 0 0 411.152 60.921 A 11.429 11.429 0 0 0 411.28 59.986 A 50.643 50.643 0 0 0 411.344 59.261 Q 411.426 58.24 411.426 57.617 A 35.176 35.176 0 0 0 410.987 52.075 A 60.885 60.885 0 0 0 409.864 46.631 Q 409.619 45.557 408.936 43.286 A 58.105 58.105 0 0 0 407.967 40.362 A 69.578 69.578 0 0 0 407.276 38.526 A 27.372 27.372 0 0 0 406.384 36.487 Q 405.786 35.266 405.127 34.278 Q 403.981 32.558 402.695 32.521 A 1.971 1.971 0 0 0 402.637 32.52 A 1.545 1.545 0 0 0 401.343 33.169 Q 401.16 33.411 401.02 33.744 A 3.532 3.532 0 0 0 401.001 33.789 A 9.439 9.439 0 0 0 400.469 35.662 A 11.429 11.429 0 0 0 400.342 36.597 A 53.129 53.129 0 0 0 400.278 37.319 Q 400.221 38.014 400.204 38.508 A 11.483 11.483 0 0 0 400.196 38.916 A 13.515 13.515 0 0 0 400.22 39.675 Q 400.269 40.539 400.418 41.806 A 79.05 79.05 0 0 0 400.586 43.14 A 74.283 74.283 0 0 0 401.064 46.185 Q 401.343 47.763 401.71 49.498 A 119.338 119.338 0 0 0 401.734 49.61 A 67.098 67.098 0 0 0 403.565 56.47 A 33.298 33.298 0 0 0 404.408 58.781 Q 404.89 59.956 405.417 60.938 A 17.068 17.068 0 0 0 405.982 61.914 A 7.497 7.497 0 0 0 406.667 62.854 Q 407.715 64.063 408.887 64.063 Q 409.862 64.063 410.385 63.253 Z M 127.002 63.233 L 127.002 53.125 A 4.448 4.448 0 0 0 125.293 52.783 Q 123.754 52.783 123.021 54.043 A 3.726 3.726 0 0 0 122.754 54.614 A 12.447 12.447 0 0 0 122.315 56.029 Q 122.071 57.035 122.071 57.91 A 7.699 7.699 0 0 0 122.998 61.597 A 3.099 3.099 0 0 0 125.222 63.241 A 4.805 4.805 0 0 0 126.172 63.33 A 3.53 3.53 0 0 0 126.798 63.277 A 3.118 3.118 0 0 0 127.002 63.233 Z" vector-effect="non-scaling-stroke"/></g></svg>