<?xml version="1.0" standalone="no"?>
<!DOCTYPE svg PUBLIC "-//W3C//DTD SVG 20010904//EN"
 "http://www.w3.org/TR/2001/REC-SVG-20010904/DTD/svg10.dtd">
<svg version="1.0" xmlns="http://www.w3.org/2000/svg"
 width="300.000000pt" height="300.000000pt" viewBox="0 0 300.000000 300.000000"
 preserveAspectRatio="xMidYMid meet">
<metadata>
Created by potrace 1.10, written by Peter Selinger 2001-2011
</metadata>
<g transform="translate(0.000000,300.000000) scale(0.100000,-0.100000)"
fill="#000000" stroke="none">
<path d="M240 1833 c-47 -17 -50 -29 -50 -185 0 -137 2 -150 21 -169 18 -18
30 -20 67 -16 49 5 72 25 72 64 0 25 26 43 63 43 25 0 37 -16 37 -51 0 -10 9
-28 20 -39 17 -17 33 -20 107 -20 75 0 90 3 109 21 l23 21 38 -23 c34 -21 48
-24 131 -22 51 2 102 8 112 13 14 8 33 6 70 -6 55 -18 112 -14 161 12 26 13
32 13 51 -1 34 -23 90 -19 116 8 12 13 22 31 22 40 0 9 5 17 10 17 6 0 10 -8
10 -18 0 -52 95 -80 143 -42 l26 21 21 -21 c17 -17 33 -20 123 -20 106 0 151
14 185 58 14 18 13 18 75 -31 67 -53 163 -49 228 10 l40 36 32 -30 c18 -17 42
-36 54 -42 35 -18 114 -13 156 9 34 19 40 19 66 5 16 -8 46 -17 68 -21 126
-20 226 95 164 190 -18 26 -18 30 -2 57 18 33 12 50 -32 83 -38 28 -142 28
-188 -1 l-33 -22 -29 21 c-31 23 -109 35 -152 24 -14 -4 -43 -23 -65 -42 l-40
-36 -40 36 c-22 19 -51 38 -65 42 -49 12 -122 -2 -159 -29 -43 -33 -51 -33
-72 -2 -29 45 -89 65 -197 65 -84 0 -100 -3 -117 -20 -11 -11 -20 -27 -20 -35
0 -19 0 -19 -39 1 -50 25 -131 -1 -131 -43 0 -7 -4 -13 -10 -13 -5 0 -10 6
-10 13 0 29 -40 51 -86 49 -86 -5 -99 -4 -139 7 -58 16 -121 4 -161 -31 l-34
-30 -30 26 c-110 92 -273 30 -296 -112 -8 -48 -18 -59 -39 -42 -11 9 -15 33
-15 80 0 80 -15 100 -84 107 -26 3 -52 13 -62 24 -15 16 -31 19 -113 18 -53 0
-103 -3 -111 -6z m0 -183 c0 -100 -4 -160 -10 -160 -6 0 -10 60 -10 160 0 100
4 160 10 160 6 0 10 -60 10 -160z m21 0 c0 -84 -2 -155 -5 -158 -3 -3 -6 68
-6 158 0 90 3 161 6 158 3 -3 5 -74 5 -158z m26 -82 c-1 -46 -3 -9 -3 82 0 91
2 128 3 83 2 -46 2 -120 0 -165z m163 232 c0 -5 -30 -11 -67 -12 l-68 -2 68
-3 c37 -2 67 -8 67 -13 0 -6 -30 -11 -67 -12 l-68 -2 68 -3 c39 -2 67 -8 67
-15 0 -7 -23 -9 -65 -6 l-65 4 0 -33 0 -33 64 0 c55 0 64 -3 62 -17 -1 -15
-14 -19 -66 -24 l-65 -5 68 -2 c86 -3 89 -22 2 -22 l-65 0 0 -55 c0 -30 -4
-55 -10 -55 -11 0 -14 302 -3 313 10 11 143 8 143 -3z m1428 -18 c43 -32 62
-71 62 -132 0 -61 -19 -100 -62 -132 -30 -21 -44 -23 -138 -23 l-105 0 -3 145
c-1 79 0 150 3 158 4 11 26 13 108 10 87 -3 107 -7 135 -26z m302 -22 c105
-54 104 -207 -3 -259 -67 -32 -116 -24 -170 27 -92 87 -24 248 106 251 15 1
46 -8 67 -19z m328 -7 c41 -31 38 -46 -3 -18 -27 17 -51 25 -83 25 -38 0 -50
-5 -83 -39 -35 -35 -39 -44 -39 -90 0 -44 5 -56 33 -87 28 -30 42 -37 83 -41
41 -4 55 -1 87 21 42 29 47 14 6 -16 -65 -49 -171 -23 -208 51 -39 76 -17 156
55 199 46 27 112 25 152 -5z m-2008 -123 c0 -87 -4 -140 -10 -140 -6 0 -10 53
-10 140 0 87 4 140 10 140 6 0 10 -53 10 -140z m17 -72 c-1 -40 -3 -8 -3 72 0
80 2 112 3 73 2 -40 2 -106 0 -145z m33 70 c0 -78 -3 -139 -6 -136 -3 3 -5 65
-5 137 0 155 0 141 6 141 3 0 5 -64 5 -142z m30 38 l0 -105 35 6 c19 3 42 2
52 -3 13 -6 3 -10 -37 -14 l-55 -7 53 -1 c28 -1 52 -6 52 -12 0 -5 -24 -11
-52 -12 l-53 -2 53 -3 c72 -5 67 -25 -5 -21 l-58 3 -3 138 c-2 89 1 137 8 137
6 0 10 -40 10 -104z m341 81 c52 -34 69 -78 69 -174 0 -49 -4 -83 -10 -83 -6
0 -10 36 -10 89 0 109 -21 148 -88 170 -110 34 -205 -72 -156 -174 20 -44 89
-81 130 -71 14 4 24 2 24 -4 0 -16 -77 -12 -111 5 -89 47 -93 193 -6 245 45
28 115 26 158 -3z m294 9 c19 -8 35 -20 35 -25 0 -15 -6 -14 -36 5 -39 26
-129 23 -159 -6 -56 -53 -14 -120 75 -120 62 0 86 -23 51 -51 -26 -21 -50 -24
-100 -9 -25 7 -32 7 -24 -1 20 -20 100 -23 128 -5 50 33 22 76 -50 76 -81 0
-121 54 -75 100 15 15 33 20 69 20 54 0 101 -14 101 -29 0 -6 -17 -3 -37 6
-45 18 -112 12 -130 -13 -27 -37 -7 -56 66 -65 72 -8 91 -21 91 -60 0 -42 -36
-62 -102 -57 -29 2 -62 8 -73 12 -19 7 -19 7 -2 -7 46 -38 160 -24 183 22 26
52 -18 101 -91 101 -46 0 -65 9 -65 31 0 27 36 42 86 34 66 -10 62 -24 -5 -18
-39 4 -61 2 -66 -6 -11 -18 -2 -22 66 -30 47 -6 67 -13 81 -30 25 -31 23 -74
-5 -107 -31 -36 -118 -45 -178 -19 -21 10 -39 21 -39 24 0 18 51 36 104 36 80
0 85 20 8 29 -83 9 -126 56 -107 116 17 53 124 77 200 46z m105 -126 c0 -129
-1 -136 -20 -136 -19 0 -20 7 -20 136 0 129 1 136 20 136 19 0 20 -7 20 -136z
m30 -6 c0 -83 -4 -134 -10 -134 -6 0 -10 54 -10 141 0 91 4 138 10 134 6 -4
10 -62 10 -141z m25 90 l-6 -44 48 0 48 0 -3 50 c-3 32 0 50 7 50 7 0 11 -45
11 -140 0 -95 -4 -140 -11 -140 -7 0 -10 20 -7 55 l3 55 -48 0 -48 0 7 -49 c4
-31 2 -51 -5 -55 -8 -5 -11 33 -11 134 0 100 3 139 11 134 7 -4 9 -22 4 -50z
m135 -90 c0 -83 -4 -134 -10 -134 -6 0 -10 54 -10 141 0 91 4 138 10 134 6 -4
10 -62 10 -141z m17 -66 c-1 -40 -3 -8 -3 72 0 80 2 112 3 73 2 -40 2 -106 0
-145z m33 70 c0 -78 -3 -139 -6 -135 -4 3 -6 65 -6 137 1 148 0 140 7 140 3 0
5 -64 5 -142z m1205 125 c19 -9 35 -20 35 -25 0 -11 -8 -10 -33 6 -42 28 -134
25 -165 -4 -51 -47 -9 -120 69 -120 50 0 69 -8 69 -31 0 -30 -42 -44 -96 -32
-29 7 -42 7 -36 1 19 -19 100 -22 127 -4 51 33 26 67 -56 77 -67 8 -89 24 -89
65 0 33 37 54 92 54 48 0 98 -16 98 -32 0 -9 -6 -10 -84 -12 -95 -2 -79 -36
17 -36 66 0 107 -64 77 -121 -16 -29 -63 -49 -115 -49 -47 0 -115 24 -115 41
0 12 14 11 27 -2 36 -36 162 -28 183 11 31 58 -4 102 -89 110 -49 4 -56 8 -59
27 -5 34 35 49 94 36 29 -7 42 -7 36 -1 -19 19 -100 22 -127 4 -47 -31 -20
-76 46 -76 41 0 78 -14 91 -34 15 -21 8 -55 -14 -70 -38 -27 -168 -15 -168 16
0 9 6 10 84 12 81 1 84 21 5 30 -91 11 -132 63 -99 126 26 48 127 65 195 33z
m-262 -32 c12 -12 16 -21 10 -21 -6 0 -16 6 -22 14 -20 23 -65 29 -105 12 -95
-40 -80 -173 23 -199 26 -6 99 19 87 30 -3 4 -12 1 -18 -5 -15 -15 -73 -16
-100 -1 -11 6 -26 26 -34 45 -12 29 -12 39 0 68 8 19 23 39 34 45 29 15 85 14
108 -3 27 -20 10 -32 -18 -12 -12 9 -33 16 -46 16 -33 0 -72 -43 -72 -80 0
-37 39 -80 72 -80 13 0 34 7 46 16 19 13 24 13 37 1 37 -37 -75 -73 -133 -43
-79 41 -82 167 -4 211 37 21 108 14 135 -14z m-1581 -10 c32 -29 33 -31 36
-128 2 -54 1 -95 -2 -92 -4 4 -8 46 -9 94 -2 85 -3 87 -36 117 -30 27 -39 30
-80 25 -129 -15 -120 -196 11 -198 35 0 39 -2 21 -9 -26 -11 -78 2 -104 26
-48 44 -44 133 8 174 41 32 114 28 155 -9z m-23 -17 c31 -26 31 -26 29 -117
l-2 -92 -5 87 c-7 105 -21 128 -79 128 -47 0 -75 -27 -75 -71 0 -41 33 -73 77
-73 19 0 32 -4 30 -8 -12 -19 -66 -7 -95 21 -82 82 31 200 120 125z m1567 -8
c10 -8 16 -18 11 -22 -4 -4 -13 -2 -19 4 -15 15 -51 15 -66 0 -7 -7 -12 -24
-12 -38 0 -14 5 -31 12 -38 15 -15 51 -15 66 0 6 6 15 9 19 5 10 -10 -8 -24
-39 -32 -21 -5 -33 -1 -52 19 -33 32 -33 60 -1 91 27 28 52 31 81 11z m-1576
-16 c17 -17 20 -33 20 -100 0 -47 -4 -80 -10 -80 -6 0 -10 33 -10 78 0 42 -4
82 -8 88 -14 20 -45 25 -68 9 -45 -30 -17 -91 38 -83 15 3 28 1 28 -4 0 -11
-58 -10 -81 2 -24 13 -26 66 -2 92 21 24 68 23 93 -2z m1658 -52 c12 -18 19
-34 17 -36 -6 -7 -39 8 -64 29 -21 17 -22 22 -10 30 24 15 36 10 57 -23z"/>
<path d="M320 1650 c0 -5 25 -10 55 -10 30 0 55 5 55 10 0 6 -25 10 -55 10
-30 0 -55 -4 -55 -10z"/>
<path d="M1650 1650 l0 -140 91 0 c110 0 148 18 173 80 20 52 20 75 -3 126
-26 57 -66 74 -175 74 l-86 0 0 -140z m206 111 c21 -13 38 -36 49 -65 17 -44
17 -48 0 -92 -25 -66 -59 -84 -162 -84 l-83 0 0 130 0 130 83 0 c63 0 89 -4
113 -19z"/>
<path d="M1680 1650 l0 -110 76 0 c86 0 108 8 129 50 28 54 11 136 -34 160
-11 5 -54 10 -95 10 l-76 0 0 -110z m175 76 c45 -45 45 -107 0 -152 -21 -21
-33 -24 -95 -24 l-70 0 0 100 0 100 70 0 c62 0 74 -3 95 -24z"/>
<path d="M1704 1727 c-3 -8 -4 -47 -2 -88 l3 -74 57 -3 c51 -3 61 0 83 22 35
35 35 97 0 131 -20 21 -34 25 -80 25 -37 0 -57 -4 -61 -13z m140 -29 c9 -12
16 -34 16 -48 0 -14 -7 -36 -16 -48 -12 -18 -25 -22 -68 -22 l-53 0 -7 39 c-3
21 -3 53 0 70 6 30 8 31 60 31 43 0 56 -4 68 -22z"/>
<path d="M1730 1650 l0 -60 44 0 c50 0 67 15 68 59 1 44 -17 61 -68 61 l-44 0
0 -60z"/>
<path d="M2043 1740 c-120 -73 -55 -253 86 -237 36 4 52 13 78 41 28 31 33 43
33 87 0 46 -4 55 -39 90 -33 33 -45 39 -82 39 -26 0 -57 -8 -76 -20z m127 -5
c53 -27 75 -101 48 -160 -18 -41 -72 -68 -120 -62 -98 13 -141 133 -70 199 44
41 92 49 142 23z"/>
<path d="M2074 1730 c-35 -14 -64 -59 -64 -99 0 -119 167 -145 201 -32 16 53
-8 107 -55 126 -40 17 -52 17 -82 5z m101 -35 c19 -18 25 -35 25 -65 0 -55
-34 -90 -87 -90 -58 1 -93 38 -93 98 0 72 103 110 155 57z"/>
<path d="M2063 1690 c-29 -27 -37 -56 -23 -89 21 -53 86 -66 125 -26 70 69
-31 182 -102 115z m92 -15 c32 -31 32 -59 -1 -91 -27 -28 -64 -27 -93 1 -23
22 -18 75 8 97 31 25 57 23 86 -7z"/>
<path d="M2076 1664 c-32 -31 -8 -84 38 -84 29 0 46 18 46 50 0 14 -5 31 -12
38 -17 17 -54 15 -72 -4z"/>
<path d="M1290 1630 c0 -73 4 -120 10 -120 6 0 10 47 10 120 0 73 -4 120 -10
120 -6 0 -10 -47 -10 -120z"/>
<path d="M1375 1650 c-4 -6 12 -10 39 -10 25 0 46 5 46 10 0 6 -18 10 -39 10
-22 0 -43 -4 -46 -10z"/>
</g>
</svg>
